<?xml version="1.0" standalone="no"?>
<!DOCTYPE svg PUBLIC "-//W3C//DTD SVG 20010904//EN"
 "http://www.w3.org/TR/2001/REC-SVG-20010904/DTD/svg10.dtd">
<svg version="1.0" xmlns="http://www.w3.org/2000/svg"
 width="2008.000000pt" height="2008.000000pt" viewBox="0 0 2008.000000 2008.000000"
 preserveAspectRatio="xMidYMid meet">

<g transform="translate(0.000000,2008.000000) scale(0.100000,-0.100000)"
fill="#000000" stroke="none">
<path d="M7040 12750 l0 -290 1583 0 c1700 0 1687 0 1926 -51 704 -153 1319
-627 1646 -1270 182 -358 265 -702 265 -1099 0 -397 -83 -741 -265 -1099 -326
-642 -942 -1117 -1646 -1270 -235 -50 -251 -51 -1636 -51 l-1293 0 0 1355 0
1355 -290 0 -290 0 0 -1645 0 -1646 1648 4 c1628 3 1648 3 1777 24 343 57 605
138 890 278 808 397 1392 1127 1605 2005 61 251 74 375 74 690 0 315 -13 439
-74 690 -213 878 -797 1608 -1605 2005 -285 140 -547 221 -890 278 -129 21
-149 21 -1777 24 l-1648 4 0 -291z"/>
<path d="M7040 11400 l0 -290 675 0 675 0 2 -1357 3 -1358 890 0 c960 0 952 0
1171 55 199 50 415 155 585 286 82 62 241 221 303 303 205 268 312 560 340
934 l5 67 -289 0 -288 0 -7 -67 c-15 -163 -51 -289 -121 -423 -166 -321 -478
-532 -844 -571 -56 -6 -316 -9 -630 -7 l-535 3 0 1065 0 1065 678 3 677 2 0
290 0 290 -1645 0 -1645 0 0 -290z"/>
</g>
</svg>
